{"title":"From Paris with Love (2010) (DVDrip720p,STEREO opt.MULTISUBS)","uid":5600845,"size":753928598,"categoryP":"video","categoryS":"hd___movies","magnet":"?xt=urn:btih:8d90856b6c2bbb2bad445f9dbe958e8dac6474e4&amp;dn=From+Paris+with+Love+%282010%29+%28DVDrip720p%2CSTEREO+opt.MULTISUBS%29&amp;tr=udp%3A%2F%2Ftracker.openbittorrent.com%3A80&amp;tr=udp%3A%2F%2Fopen.demonii.com%3A1337&amp;tr=udp%3A%2F%2Ftracker.coppersurfer.tk%3A6969&amp;tr=udp%3A%2F%2Fexodus.desync.com%3A6969","seeders":1,"leechers":0,"uploader":"Kuthumi","files":-1,"time":1275305523,"description":" &lt;a href=&quot;http://www.imdb.com/title/tt1179034/&quot; rel=&quot;nofollow&quot; target=&quot;_NEW&quot;&gt;http://www.imdb.com/title/tt1179034/&lt;/a&gt;\n\nOptional subtitles in separate idx/sub files (Work in Windows Media Player etc., \nsee enclosed Note): Arabic, Chinese 1+2, Croatian (Hrvatski), Danish, Dutch, English, French, Greek, Hungarian, Polish, Portuguese, Romanian, Serbian, Slovenian, Spanish, Swedish, Vietnamese. (Sorry, Finnish and Norwegian friends, no more subs on the DVD.)\n\nWith John Travolta and Jonathan Rhys Meyers\n\nA young employee in the office of the US Ambassador hooks up with an American spy looking to stop a terrorist attack in the city. \n\nI got so tired of all the rips with mono sound from the R5 edition so I made this stereo version from a Bdrip. I enclose a sample for ye week in faith.\n\nWidescreen DVDrip XviD 720x288, great stereo sound AC3.\nRuns well in both my standalone DivX players.\n\nMediaInfo analysis:\nFormat/Info                      : Audio Video Interleave\nFile size                        : 696 MiB\nDuration                         : 1h 32mn\nOveral bit rate                  : 1051 Kbps\n\nVideo\nFormat                           : MPEG-4 Visual\nFormat profile                   : Streaming Video@L1\nFormat settings, BVOP            : Yes\nFormat settings, QPel            : No\nFormat settings, GMC             : No warppoints\nFormat settings, Matrix          : Default\nMuxing mode                      : Packet Bitstream\nCodec ID                         : XVID\nCodec ID/Hint                    : XviD\nDuration                         : 1h 32mn\nBit rate                         : 913 Kbps\nWidth                            : 720 pixels\nHeight                           : 288 pixels\nDisplay aspect ratio             : 2.500\nFrame rate                       : 23.976 fps\nResolution                       : 8 bits\nColorimetry                      : 4:2:0\nScan type                        : Progressive\nBits/(Pixel*Frame)               : 0.184\nStream size                      : 605 MiB\nWriting library                  : XviD 1.2.0.dev47 (UTC 2006-11-01)\n\nAudio\nFormat                           : MPEG Audio\nFormat version                   : Version 1\nFormat profile                   : Layer 3\nCodec ID                         : 55\nCodec ID/Hint                    : MP3\nDuration                         : 1h 32mn\nBit rate mode                    : Constant\nBit rate                         : 128 Kbps\nMinimum bit rate                 : 128 Kbps\nChannel(s)                       : 2 channels\nSampling rate                    : 48.0 KHz\nResolution                       : 16 bits\nStream size                      : 84.8 MiB\nWriting library                  : LAME3.97 \nEncoding settings                : CBR\n\nSource: BDrip NTSC IVTC (note that PAL/NTSC will give no problems for avi files). Thanks to user 'sailo' here on PB for providing the Bdrip.)","torrent":{"xt":"urn:btih:8d90856b6c2bbb2bad445f9dbe958e8dac6474e4","amp;dn":"From+Paris+with+Love+%282010%29+%28DVDrip720p%2CSTEREO+opt.MULTISUBS%29","amp;tr":["udp%3A%2F%2Ftracker.openbittorrent.com%3A80","udp%3A%2F%2Fopen.demonii.com%3A1337","udp%3A%2F%2Ftracker.coppersurfer.tk%3A6969","udp%3A%2F%2Fexodus.desync.com%3A6969"],"infoHash":"8d90856b6c2bbb2bad445f9dbe958e8dac6474e4","infoHashBuffer":{"type":"Buffer","data":[141,144,133,107,108,43,187,43,173,68,95,157,190,149,142,141,172,100,116,228]},"announce":[],"urlList":[]}}